<mxfile host="app.diagrams.net" modified="2023-07-15T14:15:53.219Z" agent="Mozilla/5.0 (Windows NT 10.0; Win64; x64) AppleWebKit/537.36 (KHTML, like Gecko) Chrome/114.0.0.0 Safari/537.36" etag="fEZ3_DldFMZvJeEioWai" version="21.5.2" type="github">
  <diagram name="第 1 页" id="IeRR_lf_jc9WFtIsW2VL">
    <mxGraphModel dx="531" dy="323" grid="1" gridSize="10" guides="1" tooltips="1" connect="1" arrows="1" fold="1" page="1" pageScale="1" pageWidth="827" pageHeight="1169" math="0" shadow="0">
      <root>
        <mxCell id="0" />
        <mxCell id="1" parent="0" />
        <mxCell id="o7VYgOm-hevLJJB-VLt0-1" value="(163, 98, 231)" style="text;html=1;strokeColor=none;fillColor=none;align=center;verticalAlign=middle;whiteSpace=wrap;rounded=0;" vertex="1" parent="1">
          <mxGeometry x="10" y="70" width="90" height="30" as="geometry" />
        </mxCell>
        <mxCell id="o7VYgOm-hevLJJB-VLt0-2" value="" style="whiteSpace=wrap;html=1;aspect=fixed;fillColor=#A362E7;" vertex="1" parent="1">
          <mxGeometry x="40" y="40" width="30" height="30" as="geometry" />
        </mxCell>
        <mxCell id="o7VYgOm-hevLJJB-VLt0-3" value="" style="whiteSpace=wrap;html=1;aspect=fixed;" vertex="1" parent="1">
          <mxGeometry x="150" y="60" width="30" height="30" as="geometry" />
        </mxCell>
        <mxCell id="o7VYgOm-hevLJJB-VLt0-4" value="10100011&lt;br&gt;01100010&lt;br&gt;11100111" style="text;html=1;strokeColor=none;fillColor=none;align=center;verticalAlign=middle;whiteSpace=wrap;rounded=0;" vertex="1" parent="1">
          <mxGeometry x="20" y="120" width="60" height="30" as="geometry" />
        </mxCell>
      </root>
    </mxGraphModel>
  </diagram>
</mxfile>
